<svg id="Icons" viewBox="0 0 60 60" xmlns="http://www.w3.org/2000/svg"><path d="m57 27c-1.654 0-3 1.346-3 3s1.346 3 3 3 3-1.346 3-3-1.346-3-3-3zm0 4c-.552 0-1-.448-1-1s.448-1 1-1 1 .448 1 1-.448 1-1 1z"/><path d="m48 18c-1.654 0-3 1.346-3 3s1.346 3 3 3 3-1.346 3-3-1.346-3-3-3zm0 4c-.552 0-1-.448-1-1s.448-1 1-1 1 .448 1 1-.448 1-1 1z"/><path d="m39 9c-1.654 0-3 1.346-3 3s1.346 3 3 3 3-1.346 3-3-1.346-3-3-3zm0 4c-.552 0-1-.448-1-1s.448-1 1-1 1 .448 1 1-.448 1-1 1z"/><path d="m30 0c-1.654 0-3 1.346-3 3s1.346 3 3 3 3-1.346 3-3-1.346-3-3-3zm0 4c-.552 0-1-.448-1-1s.448-1 1-1 1 .448 1 1-.448 1-1 1z"/><path d="m48 36c-1.654 0-3 1.346-3 3s1.346 3 3 3 3-1.346 3-3-1.346-3-3-3zm0 4c-.552 0-1-.448-1-1s.448-1 1-1 1 .448 1 1-.448 1-1 1z"/><path d="m39 45c-1.654 0-3 1.346-3 3s1.346 3 3 3 3-1.346 3-3-1.346-3-3-3zm0 4c-.552 0-1-.448-1-1s.448-1 1-1 1 .448 1 1-.448 1-1 1z"/><path d="m30 54c-1.654 0-3 1.346-3 3s1.346 3 3 3 3-1.346 3-3-1.346-3-3-3zm0 4c-.552 0-1-.448-1-1s.448-1 1-1 1 .448 1 1-.448 1-1 1z"/><path d="m48 27c-1.654 0-3 1.346-3 3s1.346 3 3 3 3-1.346 3-3-1.346-3-3-3zm0 4c-.552 0-1-.448-1-1s.448-1 1-1 1 .448 1 1-.448 1-1 1z"/><path d="m39 18c-1.654 0-3 1.346-3 3s1.346 3 3 3 3-1.346 3-3-1.346-3-3-3zm0 4c-.552 0-1-.448-1-1s.448-1 1-1 1 .448 1 1-.448 1-1 1z"/><path d="m30 9c-1.654 0-3 1.346-3 3s1.346 3 3 3 3-1.346 3-3-1.346-3-3-3zm0 4c-.552 0-1-.448-1-1s.448-1 1-1 1 .448 1 1-.448 1-1 1z"/><path d="m21 0c-1.654 0-3 1.346-3 3s1.346 3 3 3 3-1.346 3-3-1.346-3-3-3zm0 4c-.552 0-1-.448-1-1s.448-1 1-1 1 .448 1 1-.448 1-1 1z"/><path d="m39 36c-1.654 0-3 1.346-3 3s1.346 3 3 3 3-1.346 3-3-1.346-3-3-3zm0 4c-.552 0-1-.448-1-1s.448-1 1-1 1 .448 1 1-.448 1-1 1z"/><path d="m30 45c-1.654 0-3 1.346-3 3s1.346 3 3 3 3-1.346 3-3-1.346-3-3-3zm0 4c-.552 0-1-.448-1-1s.448-1 1-1 1 .448 1 1-.448 1-1 1z"/><path d="m21 54c-1.654 0-3 1.346-3 3s1.346 3 3 3 3-1.346 3-3-1.346-3-3-3zm0 4c-.552 0-1-.448-1-1s.448-1 1-1 1 .448 1 1-.448 1-1 1z"/><path d="m39 27c-1.654 0-3 1.346-3 3s1.346 3 3 3 3-1.346 3-3-1.346-3-3-3zm0 4c-.552 0-1-.448-1-1s.448-1 1-1 1 .448 1 1-.448 1-1 1z"/><path d="m30 18c-1.654 0-3 1.346-3 3s1.346 3 3 3 3-1.346 3-3-1.346-3-3-3zm0 4c-.552 0-1-.448-1-1s.448-1 1-1 1 .448 1 1-.448 1-1 1z"/><path d="m21 9c-1.654 0-3 1.346-3 3s1.346 3 3 3 3-1.346 3-3-1.346-3-3-3zm0 4c-.552 0-1-.448-1-1s.448-1 1-1 1 .448 1 1-.448 1-1 1z"/><path d="m12 0c-1.654 0-3 1.346-3 3s1.346 3 3 3 3-1.346 3-3-1.346-3-3-3zm0 4c-.552 0-1-.448-1-1s.448-1 1-1 1 .448 1 1-.448 1-1 1z"/><path d="m30 36c-1.654 0-3 1.346-3 3s1.346 3 3 3 3-1.346 3-3-1.346-3-3-3zm0 4c-.552 0-1-.448-1-1s.448-1 1-1 1 .448 1 1-.448 1-1 1z"/><path d="m21 45c-1.654 0-3 1.346-3 3s1.346 3 3 3 3-1.346 3-3-1.346-3-3-3zm0 4c-.552 0-1-.448-1-1s.448-1 1-1 1 .448 1 1-.448 1-1 1z"/><path d="m12 54c-1.654 0-3 1.346-3 3s1.346 3 3 3 3-1.346 3-3-1.346-3-3-3zm0 4c-.552 0-1-.448-1-1s.448-1 1-1 1 .448 1 1-.448 1-1 1z"/><path d="m30 27c-1.654 0-3 1.346-3 3s1.346 3 3 3 3-1.346 3-3-1.346-3-3-3zm0 4c-.552 0-1-.448-1-1s.448-1 1-1 1 .448 1 1-.448 1-1 1z"/><path d="m21 18c-1.654 0-3 1.346-3 3s1.346 3 3 3 3-1.346 3-3-1.346-3-3-3zm0 4c-.552 0-1-.448-1-1s.448-1 1-1 1 .448 1 1-.448 1-1 1z"/><path d="m12 9c-1.654 0-3 1.346-3 3s1.346 3 3 3 3-1.346 3-3-1.346-3-3-3zm0 4c-.552 0-1-.448-1-1s.448-1 1-1 1 .448 1 1-.448 1-1 1z"/><path d="m3 6c1.654 0 3-1.346 3-3s-1.346-3-3-3-3 1.346-3 3 1.346 3 3 3zm0-4c.552 0 1 .448 1 1s-.448 1-1 1-1-.448-1-1 .448-1 1-1z"/><path d="m21 36c-1.654 0-3 1.346-3 3s1.346 3 3 3 3-1.346 3-3-1.346-3-3-3zm0 4c-.552 0-1-.448-1-1s.448-1 1-1 1 .448 1 1-.448 1-1 1z"/><path d="m12 45c-1.654 0-3 1.346-3 3s1.346 3 3 3 3-1.346 3-3-1.346-3-3-3zm0 4c-.552 0-1-.448-1-1s.448-1 1-1 1 .448 1 1-.448 1-1 1z"/><path d="m3 60c1.654 0 3-1.346 3-3s-1.346-3-3-3-3 1.346-3 3 1.346 3 3 3zm0-4c.552 0 1 .448 1 1s-.448 1-1 1-1-.448-1-1 .448-1 1-1z"/></svg>