<?xml version="1.0" encoding="UTF-8" standalone="no"?>
<!-- Created with Inkscape (http://www.inkscape.org/) -->

<svg
   version="1.1"
   id="svg2139"
   xml:space="preserve"
   width="682.66669"
   height="682.66669"
   viewBox="0 0 682.66669 682.66669"
   xmlns="http://www.w3.org/2000/svg"
   xmlns:svg="http://www.w3.org/2000/svg"><defs
     id="defs2143"><clipPath
       clipPathUnits="userSpaceOnUse"
       id="clipPath2153"><path
         d="M 0,512 H 512 V 0 H 0 Z"
         id="path2151" /></clipPath></defs><g
     id="g2145"
     transform="matrix(1.3333333,0,0,-1.3333333,0,682.66667)"><g
       id="g2147"><g
         id="g2149"
         clip-path="url(#clipPath2153)"><g
           id="g2155"
           transform="translate(199,26.5039)"><path
             d="m 0,0 c -102.698,24.745 -179,117.218 -179,227.513 0,129.244 104.773,237.983 234.017,237.983 65.089,0 123.971,-28.322 166.39,-72.387"
             style="fill:none;stroke:#000000;stroke-width:40;stroke-linecap:round;stroke-linejoin:round;stroke-miterlimit:10;stroke-dasharray:none;stroke-opacity:1"
             id="path2157" /></g><g
           id="g2159"
           transform="translate(492,446)"><path
             d="M 0,0 V -57 C 0,-79.092 -17.909,-97 -40,-97 H -97"
             style="fill:none;stroke:#000000;stroke-width:40;stroke-linecap:round;stroke-linejoin:round;stroke-miterlimit:10;stroke-dasharray:none;stroke-opacity:1"
             id="path2161" /></g><g
           id="g2163"
           transform="translate(462,254)"><path
             d="M 0,0 C 0,-13.808 11.193,-25 25,-25 38.807,-25 50,-13.808 50,0 50,13.808 38.807,25 25,25 11.193,25 0,13.808 0,0"
             style="fill:#000000;fill-opacity:1;fill-rule:nonzero;stroke:none"
             id="path2165" /></g><g
           id="g2167"
           transform="translate(447,173)"><path
             d="M 0,0 C 0,-13.808 11.193,-25 25,-25 38.807,-25 50,-13.808 50,0 50,13.808 38.807,25 25,25 11.193,25 0,13.808 0,0"
             style="fill:#000000;fill-opacity:1;fill-rule:nonzero;stroke:none"
             id="path2169" /></g><g
           id="g2171"
           transform="translate(404,100)"><path
             d="M 0,0 C 0,-13.808 11.193,-25 25,-25 38.807,-25 50,-13.808 50,0 50,13.808 38.807,25 25,25 11.193,25 0,13.808 0,0"
             style="fill:#000000;fill-opacity:1;fill-rule:nonzero;stroke:none"
             id="path2173" /></g><g
           id="g2175"
           transform="translate(338,49)"><path
             d="M 0,0 C 0,-13.808 11.193,-25 25,-25 38.807,-25 50,-13.808 50,0 50,13.808 38.807,25 25,25 11.193,25 0,13.808 0,0"
             style="fill:#000000;fill-opacity:1;fill-rule:nonzero;stroke:none"
             id="path2177" /></g><g
           id="g2179"
           transform="translate(255,25)"><path
             d="M 0,0 C 0,-13.808 11.193,-25 25,-25 38.807,-25 50,-13.808 50,0 50,13.808 38.807,25 25,25 11.193,25 0,13.808 0,0"
             style="fill:#000000;fill-opacity:1;fill-rule:nonzero;stroke:none"
             id="path2181" /></g></g></g></g></svg>
