<svg xmlns="http://www.w3.org/2000/svg" version="1.1" xmlns:xlink="http://www.w3.org/1999/xlink" width="512" height="512" x="0" y="0" viewBox="0 0 100 100" style="enable-background:new 0 0 512 512" xml:space="preserve" class=""><g transform="matrix(-1,1.2246467991473532e-16,-1.2246467991473532e-16,-1,99.9000015258789,100)"><path d="M78.9 66.1H21.1C12.2 66.1 5 58.9 5 50s7.2-16.1 16.1-16.1h57.7c8.9 0 16.1 7.2 16.1 16.1s-7.2 16.1-16 16.1zM21.1 38.9C15 38.9 10 43.9 10 50s5 11.1 11.1 11.1h57.7c6.1 0 11.1-5 11.1-11.1s-5-11.1-11.1-11.1z" fill="#50baae" opacity="1" data-original="#000000" class=""></path><path d="M27.7 56.8c-.4 0-.9-.1-1.2-.3L19 52.2c-.8-.4-1.3-1.3-1.3-2.2s.5-1.7 1.3-2.2l7.5-4.3c1.2-.7 2.7-.3 3.4.9s.3 2.7-.9 3.4L25.2 50l3.8 2.2c1.2.7 1.6 2.2.9 3.4-.5.8-1.4 1.2-2.2 1.2zM40.5 56.8c-.4 0-.9-.1-1.2-.3l-7.5-4.3c-.8-.4-1.3-1.3-1.3-2.2s.5-1.7 1.3-2.2l7.5-4.3c1.2-.7 2.7-.3 3.4.9s.3 2.7-.9 3.4L38 50l3.8 2.2c1.2.7 1.6 2.2.9 3.4-.5.8-1.3 1.2-2.2 1.2z" fill="#50baae" opacity="1" data-original="#000000" class=""></path></g></svg>